<svg width="1363" height="163" viewBox="0 0 1363 163" fill="none" xmlns="http://www.w3.org/2000/svg">
<path d="M0 15C0 6.71573 6.71573 0 15 0H37V163H15C6.71573 163 0 156.284 0 148V15Z" fill="#424242"/>
<rect width="1097" height="163" transform="translate(37)" fill="#F0F0F0"/>
<path d="M101.906 53.9219L94.3945 51.2383V48.0859L104.602 52.375V54.6367L101.906 53.9219ZM94.3945 56.1719L101.918 53.4297L104.602 52.7852V55.0352L94.3945 59.3242V56.1719ZM119.543 54.918H115.195V52.1758H119.543C120.215 52.1758 120.762 52.0664 121.184 51.8477C121.605 51.6211 121.914 51.3086 122.109 50.9102C122.305 50.5117 122.402 50.0625 122.402 49.5625C122.402 49.0547 122.305 48.582 122.109 48.1445C121.914 47.707 121.605 47.3555 121.184 47.0898C120.762 46.8242 120.215 46.6914 119.543 46.6914H116.414V61H112.898V43.9375H119.543C120.879 43.9375 122.023 44.1797 122.977 44.6641C123.938 45.1406 124.672 45.8008 125.18 46.6445C125.688 47.4883 125.941 48.4531 125.941 49.5391C125.941 50.6406 125.688 51.5938 125.18 52.3984C124.672 53.2031 123.938 53.8242 122.977 54.2617C122.023 54.6992 120.879 54.918 119.543 54.918ZM127.453 54.7891V54.543C127.453 53.6133 127.586 52.7578 127.852 51.9766C128.117 51.1875 128.504 50.5039 129.012 49.9258C129.52 49.3477 130.145 48.8984 130.887 48.5781C131.629 48.25 132.48 48.0859 133.441 48.0859C134.402 48.0859 135.258 48.25 136.008 48.5781C136.758 48.8984 137.387 49.3477 137.895 49.9258C138.41 50.5039 138.801 51.1875 139.066 51.9766C139.332 52.7578 139.465 53.6133 139.465 54.543V54.7891C139.465 55.7109 139.332 56.5664 139.066 57.3555C138.801 58.1367 138.41 58.8203 137.895 59.4062C137.387 59.9844 136.762 60.4336 136.02 60.7539C135.277 61.0742 134.426 61.2344 133.465 61.2344C132.504 61.2344 131.648 61.0742 130.898 60.7539C130.156 60.4336 129.527 59.9844 129.012 59.4062C128.504 58.8203 128.117 58.1367 127.852 57.3555C127.586 56.5664 127.453 55.7109 127.453 54.7891ZM130.828 54.543V54.7891C130.828 55.3203 130.875 55.8164 130.969 56.2773C131.062 56.7383 131.211 57.1445 131.414 57.4961C131.625 57.8398 131.898 58.1094 132.234 58.3047C132.57 58.5 132.98 58.5977 133.465 58.5977C133.934 58.5977 134.336 58.5 134.672 58.3047C135.008 58.1094 135.277 57.8398 135.48 57.4961C135.684 57.1445 135.832 56.7383 135.926 56.2773C136.027 55.8164 136.078 55.3203 136.078 54.7891V54.543C136.078 54.0273 136.027 53.543 135.926 53.0898C135.832 52.6289 135.68 52.2227 135.469 51.8711C135.266 51.5117 134.996 51.2305 134.66 51.0273C134.324 50.8242 133.918 50.7227 133.441 50.7227C132.965 50.7227 132.559 50.8242 132.223 51.0273C131.895 51.2305 131.625 51.5117 131.414 51.8711C131.211 52.2227 131.062 52.6289 130.969 53.0898C130.875 53.543 130.828 54.0273 130.828 54.543ZM148.395 57.4961C148.395 57.2539 148.324 57.0352 148.184 56.8398C148.043 56.6445 147.781 56.4648 147.398 56.3008C147.023 56.1289 146.48 55.9727 145.77 55.832C145.129 55.6914 144.531 55.5156 143.977 55.3047C143.43 55.0859 142.953 54.8242 142.547 54.5195C142.148 54.2148 141.836 53.8555 141.609 53.4414C141.383 53.0195 141.27 52.5391 141.27 52C141.27 51.4688 141.383 50.9688 141.609 50.5C141.844 50.0312 142.176 49.6172 142.605 49.2578C143.043 48.8906 143.574 48.6055 144.199 48.4023C144.832 48.1914 145.543 48.0859 146.332 48.0859C147.434 48.0859 148.379 48.2617 149.168 48.6133C149.965 48.9648 150.574 49.4492 150.996 50.0664C151.426 50.6758 151.641 51.3711 151.641 52.1523H148.266C148.266 51.8242 148.195 51.5312 148.055 51.2734C147.922 51.0078 147.711 50.8008 147.422 50.6523C147.141 50.4961 146.773 50.418 146.32 50.418C145.945 50.418 145.621 50.4844 145.348 50.6172C145.074 50.7422 144.863 50.9141 144.715 51.1328C144.574 51.3438 144.504 51.5781 144.504 51.8359C144.504 52.0312 144.543 52.207 144.621 52.3633C144.707 52.5117 144.844 52.6484 145.031 52.7734C145.219 52.8984 145.461 53.0156 145.758 53.125C146.062 53.2266 146.438 53.3203 146.883 53.4062C147.797 53.5938 148.613 53.8398 149.332 54.1445C150.051 54.4414 150.621 54.8477 151.043 55.3633C151.465 55.8711 151.676 56.5391 151.676 57.3672C151.676 57.9297 151.551 58.4453 151.301 58.9141C151.051 59.3828 150.691 59.793 150.223 60.1445C149.754 60.4883 149.191 60.7578 148.535 60.9531C147.887 61.1406 147.156 61.2344 146.344 61.2344C145.164 61.2344 144.164 61.0234 143.344 60.6016C142.531 60.1797 141.914 59.6445 141.492 58.9961C141.078 58.3398 140.871 57.668 140.871 56.9805H144.07C144.086 57.4414 144.203 57.8125 144.422 58.0938C144.648 58.375 144.934 58.5781 145.277 58.7031C145.629 58.8281 146.008 58.8906 146.414 58.8906C146.852 58.8906 147.215 58.832 147.504 58.7148C147.793 58.5898 148.012 58.4258 148.16 58.2227C148.316 58.0117 148.395 57.7695 148.395 57.4961ZM160.078 48.3203V50.7109H152.695V48.3203H160.078ZM154.523 45.1914H157.898V57.1797C157.898 57.5469 157.945 57.8281 158.039 58.0234C158.141 58.2188 158.289 58.3555 158.484 58.4336C158.68 58.5039 158.926 58.5391 159.223 58.5391C159.434 58.5391 159.621 58.5312 159.785 58.5156C159.957 58.4922 160.102 58.4688 160.219 58.4453L160.23 60.9297C159.941 61.0234 159.629 61.0977 159.293 61.1523C158.957 61.207 158.586 61.2344 158.18 61.2344C157.438 61.2344 156.789 61.1133 156.234 60.8711C155.688 60.6211 155.266 60.2227 154.969 59.6758C154.672 59.1289 154.523 58.4102 154.523 57.5195V45.1914ZM169.5 57.9648V48.3203H172.875V61H169.699L169.5 57.9648ZM169.875 55.3633L170.871 55.3398C170.871 56.1836 170.773 56.9688 170.578 57.6953C170.383 58.4141 170.09 59.0391 169.699 59.5703C169.309 60.0938 168.816 60.5039 168.223 60.8008C167.629 61.0898 166.93 61.2344 166.125 61.2344C165.508 61.2344 164.938 61.1484 164.414 60.9766C163.898 60.7969 163.453 60.5195 163.078 60.1445C162.711 59.7617 162.422 59.2734 162.211 58.6797C162.008 58.0781 161.906 57.3555 161.906 56.5117V48.3203H165.281V56.5352C165.281 56.9102 165.324 57.2266 165.41 57.4844C165.504 57.7422 165.633 57.9531 165.797 58.1172C165.961 58.2812 166.152 58.3984 166.371 58.4688C166.598 58.5391 166.848 58.5742 167.121 58.5742C167.816 58.5742 168.363 58.4336 168.762 58.1523C169.168 57.8711 169.453 57.4883 169.617 57.0039C169.789 56.5117 169.875 55.9648 169.875 55.3633ZM178.828 51.0859V61H175.453V48.3203H178.629L178.828 51.0859ZM182.648 48.2383L182.59 51.3672C182.426 51.3438 182.227 51.3242 181.992 51.3086C181.766 51.2852 181.559 51.2734 181.371 51.2734C180.895 51.2734 180.48 51.3359 180.129 51.4609C179.785 51.5781 179.496 51.7539 179.262 51.9883C179.035 52.2227 178.863 52.5078 178.746 52.8438C178.637 53.1797 178.574 53.5625 178.559 53.9922L177.879 53.7812C177.879 52.9609 177.961 52.207 178.125 51.5195C178.289 50.8242 178.527 50.2188 178.84 49.7031C179.16 49.1875 179.551 48.7891 180.012 48.5078C180.473 48.2266 181 48.0859 181.594 48.0859C181.781 48.0859 181.973 48.1016 182.168 48.1328C182.363 48.1562 182.523 48.1914 182.648 48.2383ZM187.805 48.3203V61H184.418V48.3203H187.805ZM184.207 45.0156C184.207 44.5234 184.379 44.1172 184.723 43.7969C185.066 43.4766 185.527 43.3164 186.105 43.3164C186.676 43.3164 187.133 43.4766 187.477 43.7969C187.828 44.1172 188.004 44.5234 188.004 45.0156C188.004 45.5078 187.828 45.9141 187.477 46.2344C187.133 46.5547 186.676 46.7148 186.105 46.7148C185.527 46.7148 185.066 46.5547 184.723 46.2344C184.379 45.9141 184.207 45.5078 184.207 45.0156ZM200.684 58.3633V61H191.051V58.3633H200.684ZM200.496 50.2656L192.41 61H190.148V58.9961L198.199 48.3203H200.496V50.2656ZM199.301 48.3203V50.9688H190.336V48.3203H199.301ZM208.453 61.2344C207.469 61.2344 206.586 61.0781 205.805 60.7656C205.023 60.4453 204.359 60.0039 203.812 59.4414C203.273 58.8789 202.859 58.2266 202.57 57.4844C202.281 56.7344 202.137 55.9375 202.137 55.0938V54.625C202.137 53.6641 202.273 52.7852 202.547 51.9883C202.82 51.1914 203.211 50.5 203.719 49.9141C204.234 49.3281 204.859 48.8789 205.594 48.5664C206.328 48.2461 207.156 48.0859 208.078 48.0859C208.977 48.0859 209.773 48.2344 210.469 48.5312C211.164 48.8281 211.746 49.25 212.215 49.7969C212.691 50.3438 213.051 51 213.293 51.7656C213.535 52.5234 213.656 53.3672 213.656 54.2969V55.7031H203.578V53.4531H210.34V53.1953C210.34 52.7266 210.254 52.3086 210.082 51.9414C209.918 51.5664 209.668 51.2695 209.332 51.0508C208.996 50.832 208.566 50.7227 208.043 50.7227C207.598 50.7227 207.215 50.8203 206.895 51.0156C206.574 51.2109 206.312 51.4844 206.109 51.8359C205.914 52.1875 205.766 52.6016 205.664 53.0781C205.57 53.5469 205.523 54.0625 205.523 54.625V55.0938C205.523 55.6016 205.594 56.0703 205.734 56.5C205.883 56.9297 206.09 57.3008 206.355 57.6133C206.629 57.9258 206.957 58.168 207.34 58.3398C207.73 58.5117 208.172 58.5977 208.664 58.5977C209.273 58.5977 209.84 58.4805 210.363 58.2461C210.895 58.0039 211.352 57.6406 211.734 57.1562L213.375 58.9375C213.109 59.3203 212.746 59.6875 212.285 60.0391C211.832 60.3906 211.285 60.6797 210.645 60.9062C210.004 61.125 209.273 61.2344 208.453 61.2344Z" fill="#888888"/>
<path d="M114.117 84.875H122.344V107.164C122.344 109.82 121.789 112.07 120.68 113.914C119.57 115.742 118.016 117.125 116.016 118.062C114.016 119 111.664 119.469 108.961 119.469C106.289 119.469 103.938 119 101.906 118.062C99.8906 117.125 98.3125 115.742 97.1719 113.914C96.0469 112.07 95.4844 109.82 95.4844 107.164V84.875H103.734V107.164C103.734 108.57 103.938 109.719 104.344 110.609C104.75 111.484 105.344 112.125 106.125 112.531C106.906 112.938 107.852 113.141 108.961 113.141C110.086 113.141 111.031 112.938 111.797 112.531C112.562 112.125 113.141 111.484 113.531 110.609C113.922 109.719 114.117 108.57 114.117 107.164V84.875ZM136.266 84.875V119H128.062V84.875H136.266ZM172.523 84.875H180.75V107.164C180.75 109.82 180.195 112.07 179.086 113.914C177.977 115.742 176.422 117.125 174.422 118.062C172.422 119 170.07 119.469 167.367 119.469C164.695 119.469 162.344 119 160.312 118.062C158.297 117.125 156.719 115.742 155.578 113.914C154.453 112.07 153.891 109.82 153.891 107.164V84.875H162.141V107.164C162.141 108.57 162.344 109.719 162.75 110.609C163.156 111.484 163.75 112.125 164.531 112.531C165.312 112.938 166.258 113.141 167.367 113.141C168.492 113.141 169.438 112.938 170.203 112.531C170.969 112.125 171.547 111.484 171.938 110.609C172.328 109.719 172.523 108.57 172.523 107.164V84.875ZM193.078 84.875L198.656 96.2188L204.234 84.875H213.609L204.094 101.797L213.867 119H204.398L198.656 107.445L192.914 119H183.422L193.219 101.797L183.68 84.875H193.078Z" fill="black"/>
<path d="M1134 0H1348C1356.28 0 1363 6.71573 1363 15V148C1363 156.284 1356.28 163 1348 163H1134V0Z" fill="#FE9120"/>
<path d="M1248.5 111.917C1244.51 111.917 1240.55 111.13 1236.86 109.601C1233.17 108.073 1229.82 105.832 1226.99 103.008C1221.29 97.3036 1218.08 89.567 1218.08 81.5C1218.08 73.433 1221.29 65.6964 1226.99 59.9922C1232.7 54.2879 1240.43 51.0833 1248.5 51.0833C1265.23 51.0833 1278.92 63.25 1278.92 78.4583C1278.92 83.2985 1276.99 87.9405 1273.57 91.363C1270.15 94.7856 1265.51 96.7083 1260.67 96.7083H1255.19C1254.28 96.7083 1253.67 97.3167 1253.67 98.2292C1253.67 98.5333 1253.97 98.8375 1253.97 99.1417C1255.19 100.662 1255.8 102.487 1255.8 104.312C1256.1 108.571 1252.76 111.917 1248.5 111.917ZM1248.5 57.1667C1242.05 57.1667 1235.86 59.7303 1231.29 64.2937C1226.73 68.8571 1224.17 75.0464 1224.17 81.5C1224.17 87.9536 1226.73 94.1429 1231.29 98.7063C1235.86 103.27 1242.05 105.833 1248.5 105.833C1249.41 105.833 1250.02 105.225 1250.02 104.312C1250.02 103.704 1249.72 103.4 1249.72 103.096C1248.5 101.575 1247.89 100.054 1247.89 98.2292C1247.89 93.9708 1251.24 90.625 1255.5 90.625H1260.67C1263.89 90.625 1266.99 89.3432 1269.27 87.0615C1271.55 84.7798 1272.83 81.6851 1272.83 78.4583C1272.83 66.5958 1261.88 57.1667 1248.5 57.1667ZM1231.77 75.4167C1234.2 75.4167 1236.33 77.5458 1236.33 79.9792C1236.33 82.4125 1234.2 84.5417 1231.77 84.5417C1229.34 84.5417 1227.21 82.4125 1227.21 79.9792C1227.21 77.5458 1229.34 75.4167 1231.77 75.4167ZM1240.9 63.25C1243.33 63.25 1245.46 65.3792 1245.46 67.8125C1245.46 70.2458 1243.33 72.375 1240.9 72.375C1238.46 72.375 1236.33 70.2458 1236.33 67.8125C1236.33 65.3792 1238.46 63.25 1240.9 63.25ZM1256.1 63.25C1258.54 63.25 1260.67 65.3792 1260.67 67.8125C1260.67 70.2458 1258.54 72.375 1256.1 72.375C1253.67 72.375 1251.54 70.2458 1251.54 67.8125C1251.54 65.3792 1253.67 63.25 1256.1 63.25ZM1265.23 75.4167C1267.66 75.4167 1269.79 77.5458 1269.79 79.9792C1269.79 82.4125 1267.66 84.5417 1265.23 84.5417C1262.8 84.5417 1260.67 82.4125 1260.67 79.9792C1260.67 77.5458 1262.8 75.4167 1265.23 75.4167Z" fill="white"/>
</svg>
