<svg width="1363" height="163" viewBox="0 0 1363 163" fill="none" xmlns="http://www.w3.org/2000/svg">
<path d="M0 15C0 6.71573 6.71573 0 15 0H37V163H15C6.71573 163 0 156.284 0 148V15Z" fill="#424242"/>
<rect width="1097" height="163" transform="translate(37)" fill="#F0F0F0"/>
<path d="M101.906 53.9219L94.3945 51.2383V48.0859L104.602 52.375V54.6367L101.906 53.9219ZM94.3945 56.1719L101.918 53.4297L104.602 52.7852V55.0352L94.3945 59.3242V56.1719ZM119.543 54.918H115.195V52.1758H119.543C120.215 52.1758 120.762 52.0664 121.184 51.8477C121.605 51.6211 121.914 51.3086 122.109 50.9102C122.305 50.5117 122.402 50.0625 122.402 49.5625C122.402 49.0547 122.305 48.582 122.109 48.1445C121.914 47.707 121.605 47.3555 121.184 47.0898C120.762 46.8242 120.215 46.6914 119.543 46.6914H116.414V61H112.898V43.9375H119.543C120.879 43.9375 122.023 44.1797 122.977 44.6641C123.938 45.1406 124.672 45.8008 125.18 46.6445C125.688 47.4883 125.941 48.4531 125.941 49.5391C125.941 50.6406 125.688 51.5938 125.18 52.3984C124.672 53.2031 123.938 53.8242 122.977 54.2617C122.023 54.6992 120.879 54.918 119.543 54.918ZM127.453 54.7891V54.543C127.453 53.6133 127.586 52.7578 127.852 51.9766C128.117 51.1875 128.504 50.5039 129.012 49.9258C129.52 49.3477 130.145 48.8984 130.887 48.5781C131.629 48.25 132.48 48.0859 133.441 48.0859C134.402 48.0859 135.258 48.25 136.008 48.5781C136.758 48.8984 137.387 49.3477 137.895 49.9258C138.41 50.5039 138.801 51.1875 139.066 51.9766C139.332 52.7578 139.465 53.6133 139.465 54.543V54.7891C139.465 55.7109 139.332 56.5664 139.066 57.3555C138.801 58.1367 138.41 58.8203 137.895 59.4062C137.387 59.9844 136.762 60.4336 136.02 60.7539C135.277 61.0742 134.426 61.2344 133.465 61.2344C132.504 61.2344 131.648 61.0742 130.898 60.7539C130.156 60.4336 129.527 59.9844 129.012 59.4062C128.504 58.8203 128.117 58.1367 127.852 57.3555C127.586 56.5664 127.453 55.7109 127.453 54.7891ZM130.828 54.543V54.7891C130.828 55.3203 130.875 55.8164 130.969 56.2773C131.062 56.7383 131.211 57.1445 131.414 57.4961C131.625 57.8398 131.898 58.1094 132.234 58.3047C132.57 58.5 132.98 58.5977 133.465 58.5977C133.934 58.5977 134.336 58.5 134.672 58.3047C135.008 58.1094 135.277 57.8398 135.48 57.4961C135.684 57.1445 135.832 56.7383 135.926 56.2773C136.027 55.8164 136.078 55.3203 136.078 54.7891V54.543C136.078 54.0273 136.027 53.543 135.926 53.0898C135.832 52.6289 135.68 52.2227 135.469 51.8711C135.266 51.5117 134.996 51.2305 134.66 51.0273C134.324 50.8242 133.918 50.7227 133.441 50.7227C132.965 50.7227 132.559 50.8242 132.223 51.0273C131.895 51.2305 131.625 51.5117 131.414 51.8711C131.211 52.2227 131.062 52.6289 130.969 53.0898C130.875 53.543 130.828 54.0273 130.828 54.543ZM148.395 57.4961C148.395 57.2539 148.324 57.0352 148.184 56.8398C148.043 56.6445 147.781 56.4648 147.398 56.3008C147.023 56.1289 146.48 55.9727 145.77 55.832C145.129 55.6914 144.531 55.5156 143.977 55.3047C143.43 55.0859 142.953 54.8242 142.547 54.5195C142.148 54.2148 141.836 53.8555 141.609 53.4414C141.383 53.0195 141.27 52.5391 141.27 52C141.27 51.4688 141.383 50.9688 141.609 50.5C141.844 50.0312 142.176 49.6172 142.605 49.2578C143.043 48.8906 143.574 48.6055 144.199 48.4023C144.832 48.1914 145.543 48.0859 146.332 48.0859C147.434 48.0859 148.379 48.2617 149.168 48.6133C149.965 48.9648 150.574 49.4492 150.996 50.0664C151.426 50.6758 151.641 51.3711 151.641 52.1523H148.266C148.266 51.8242 148.195 51.5312 148.055 51.2734C147.922 51.0078 147.711 50.8008 147.422 50.6523C147.141 50.4961 146.773 50.418 146.32 50.418C145.945 50.418 145.621 50.4844 145.348 50.6172C145.074 50.7422 144.863 50.9141 144.715 51.1328C144.574 51.3438 144.504 51.5781 144.504 51.8359C144.504 52.0312 144.543 52.207 144.621 52.3633C144.707 52.5117 144.844 52.6484 145.031 52.7734C145.219 52.8984 145.461 53.0156 145.758 53.125C146.062 53.2266 146.438 53.3203 146.883 53.4062C147.797 53.5938 148.613 53.8398 149.332 54.1445C150.051 54.4414 150.621 54.8477 151.043 55.3633C151.465 55.8711 151.676 56.5391 151.676 57.3672C151.676 57.9297 151.551 58.4453 151.301 58.9141C151.051 59.3828 150.691 59.793 150.223 60.1445C149.754 60.4883 149.191 60.7578 148.535 60.9531C147.887 61.1406 147.156 61.2344 146.344 61.2344C145.164 61.2344 144.164 61.0234 143.344 60.6016C142.531 60.1797 141.914 59.6445 141.492 58.9961C141.078 58.3398 140.871 57.668 140.871 56.9805H144.07C144.086 57.4414 144.203 57.8125 144.422 58.0938C144.648 58.375 144.934 58.5781 145.277 58.7031C145.629 58.8281 146.008 58.8906 146.414 58.8906C146.852 58.8906 147.215 58.832 147.504 58.7148C147.793 58.5898 148.012 58.4258 148.16 58.2227C148.316 58.0117 148.395 57.7695 148.395 57.4961ZM160.078 48.3203V50.7109H152.695V48.3203H160.078ZM154.523 45.1914H157.898V57.1797C157.898 57.5469 157.945 57.8281 158.039 58.0234C158.141 58.2188 158.289 58.3555 158.484 58.4336C158.68 58.5039 158.926 58.5391 159.223 58.5391C159.434 58.5391 159.621 58.5312 159.785 58.5156C159.957 58.4922 160.102 58.4688 160.219 58.4453L160.23 60.9297C159.941 61.0234 159.629 61.0977 159.293 61.1523C158.957 61.207 158.586 61.2344 158.18 61.2344C157.438 61.2344 156.789 61.1133 156.234 60.8711C155.688 60.6211 155.266 60.2227 154.969 59.6758C154.672 59.1289 154.523 58.4102 154.523 57.5195V45.1914ZM169.5 57.9648V48.3203H172.875V61H169.699L169.5 57.9648ZM169.875 55.3633L170.871 55.3398C170.871 56.1836 170.773 56.9688 170.578 57.6953C170.383 58.4141 170.09 59.0391 169.699 59.5703C169.309 60.0938 168.816 60.5039 168.223 60.8008C167.629 61.0898 166.93 61.2344 166.125 61.2344C165.508 61.2344 164.938 61.1484 164.414 60.9766C163.898 60.7969 163.453 60.5195 163.078 60.1445C162.711 59.7617 162.422 59.2734 162.211 58.6797C162.008 58.0781 161.906 57.3555 161.906 56.5117V48.3203H165.281V56.5352C165.281 56.9102 165.324 57.2266 165.41 57.4844C165.504 57.7422 165.633 57.9531 165.797 58.1172C165.961 58.2812 166.152 58.3984 166.371 58.4688C166.598 58.5391 166.848 58.5742 167.121 58.5742C167.816 58.5742 168.363 58.4336 168.762 58.1523C169.168 57.8711 169.453 57.4883 169.617 57.0039C169.789 56.5117 169.875 55.9648 169.875 55.3633ZM178.828 51.0859V61H175.453V48.3203H178.629L178.828 51.0859ZM182.648 48.2383L182.59 51.3672C182.426 51.3438 182.227 51.3242 181.992 51.3086C181.766 51.2852 181.559 51.2734 181.371 51.2734C180.895 51.2734 180.48 51.3359 180.129 51.4609C179.785 51.5781 179.496 51.7539 179.262 51.9883C179.035 52.2227 178.863 52.5078 178.746 52.8438C178.637 53.1797 178.574 53.5625 178.559 53.9922L177.879 53.7812C177.879 52.9609 177.961 52.207 178.125 51.5195C178.289 50.8242 178.527 50.2188 178.84 49.7031C179.16 49.1875 179.551 48.7891 180.012 48.5078C180.473 48.2266 181 48.0859 181.594 48.0859C181.781 48.0859 181.973 48.1016 182.168 48.1328C182.363 48.1562 182.523 48.1914 182.648 48.2383ZM187.805 48.3203V61H184.418V48.3203H187.805ZM184.207 45.0156C184.207 44.5234 184.379 44.1172 184.723 43.7969C185.066 43.4766 185.527 43.3164 186.105 43.3164C186.676 43.3164 187.133 43.4766 187.477 43.7969C187.828 44.1172 188.004 44.5234 188.004 45.0156C188.004 45.5078 187.828 45.9141 187.477 46.2344C187.133 46.5547 186.676 46.7148 186.105 46.7148C185.527 46.7148 185.066 46.5547 184.723 46.2344C184.379 45.9141 184.207 45.5078 184.207 45.0156ZM200.684 58.3633V61H191.051V58.3633H200.684ZM200.496 50.2656L192.41 61H190.148V58.9961L198.199 48.3203H200.496V50.2656ZM199.301 48.3203V50.9688H190.336V48.3203H199.301ZM208.453 61.2344C207.469 61.2344 206.586 61.0781 205.805 60.7656C205.023 60.4453 204.359 60.0039 203.812 59.4414C203.273 58.8789 202.859 58.2266 202.57 57.4844C202.281 56.7344 202.137 55.9375 202.137 55.0938V54.625C202.137 53.6641 202.273 52.7852 202.547 51.9883C202.82 51.1914 203.211 50.5 203.719 49.9141C204.234 49.3281 204.859 48.8789 205.594 48.5664C206.328 48.2461 207.156 48.0859 208.078 48.0859C208.977 48.0859 209.773 48.2344 210.469 48.5312C211.164 48.8281 211.746 49.25 212.215 49.7969C212.691 50.3438 213.051 51 213.293 51.7656C213.535 52.5234 213.656 53.3672 213.656 54.2969V55.7031H203.578V53.4531H210.34V53.1953C210.34 52.7266 210.254 52.3086 210.082 51.9414C209.918 51.5664 209.668 51.2695 209.332 51.0508C208.996 50.832 208.566 50.7227 208.043 50.7227C207.598 50.7227 207.215 50.8203 206.895 51.0156C206.574 51.2109 206.312 51.4844 206.109 51.8359C205.914 52.1875 205.766 52.6016 205.664 53.0781C205.57 53.5469 205.523 54.0625 205.523 54.625V55.0938C205.523 55.6016 205.594 56.0703 205.734 56.5C205.883 56.9297 206.09 57.3008 206.355 57.6133C206.629 57.9258 206.957 58.168 207.34 58.3398C207.73 58.5117 208.172 58.5977 208.664 58.5977C209.273 58.5977 209.84 58.4805 210.363 58.2461C210.895 58.0039 211.352 57.6406 211.734 57.1562L213.375 58.9375C213.109 59.3203 212.746 59.6875 212.285 60.0391C211.832 60.3906 211.285 60.6797 210.645 60.9062C210.004 61.125 209.273 61.2344 208.453 61.2344Z" fill="#888888"/>
<path d="M118.594 98.4219V104.75H101.086V98.4219H118.594ZM103.828 84.875V119H95.6016V84.875H103.828ZM124.125 84.875V119H115.922V84.875H124.125ZM127.992 106.578V106.086C127.992 104.227 128.258 102.516 128.789 100.953C129.32 99.375 130.102 98.0078 131.133 96.8516C132.164 95.6953 133.438 94.7969 134.953 94.1562C136.469 93.5 138.219 93.1719 140.203 93.1719C142.203 93.1719 143.961 93.5 145.477 94.1562C147.008 94.7969 148.289 95.6953 149.32 96.8516C150.352 98.0078 151.133 99.375 151.664 100.953C152.195 102.516 152.461 104.227 152.461 106.086V106.578C152.461 108.422 152.195 110.133 151.664 111.711C151.133 113.273 150.352 114.641 149.32 115.812C148.289 116.969 147.016 117.867 145.5 118.508C143.984 119.148 142.234 119.469 140.25 119.469C138.266 119.469 136.508 119.148 134.977 118.508C133.445 117.867 132.164 116.969 131.133 115.812C130.102 114.641 129.32 113.273 128.789 111.711C128.258 110.133 127.992 108.422 127.992 106.578ZM135.891 106.086V106.578C135.891 107.531 135.961 108.422 136.102 109.25C136.242 110.078 136.477 110.805 136.805 111.43C137.133 112.039 137.578 112.516 138.141 112.859C138.703 113.203 139.406 113.375 140.25 113.375C141.078 113.375 141.766 113.203 142.312 112.859C142.875 112.516 143.32 112.039 143.648 111.43C143.977 110.805 144.211 110.078 144.352 109.25C144.492 108.422 144.562 107.531 144.562 106.578V106.086C144.562 105.164 144.492 104.297 144.352 103.484C144.211 102.656 143.977 101.93 143.648 101.305C143.32 100.664 142.875 100.164 142.312 99.8047C141.75 99.4453 141.047 99.2656 140.203 99.2656C139.375 99.2656 138.68 99.4453 138.117 99.8047C137.57 100.164 137.133 100.664 136.805 101.305C136.477 101.93 136.242 102.656 136.102 103.484C135.961 104.297 135.891 105.164 135.891 106.086ZM163.688 111.453L168.375 93.6406H173.32L171.562 102.57L166.922 119H162.961L163.688 111.453ZM161.836 93.6406L164.742 111.312L165.07 119H160.266L154.266 93.6406H161.836ZM177.492 110.938L180.422 93.6406H187.992L182.039 119H177.234L177.492 110.938ZM173.883 93.6406L178.617 111.406L179.344 119H175.336L170.789 102.617L169.102 93.6406H173.883ZM218.297 84.875V119H210.07V84.875H218.297ZM228.562 84.875V91.2266H200.039V84.875H228.562ZM225.773 106.578V106.086C225.773 104.227 226.039 102.516 226.57 100.953C227.102 99.375 227.883 98.0078 228.914 96.8516C229.945 95.6953 231.219 94.7969 232.734 94.1562C234.25 93.5 236 93.1719 237.984 93.1719C239.984 93.1719 241.742 93.5 243.258 94.1562C244.789 94.7969 246.07 95.6953 247.102 96.8516C248.133 98.0078 248.914 99.375 249.445 100.953C249.977 102.516 250.242 104.227 250.242 106.086V106.578C250.242 108.422 249.977 110.133 249.445 111.711C248.914 113.273 248.133 114.641 247.102 115.812C246.07 116.969 244.797 117.867 243.281 118.508C241.766 119.148 240.016 119.469 238.031 119.469C236.047 119.469 234.289 119.148 232.758 118.508C231.227 117.867 229.945 116.969 228.914 115.812C227.883 114.641 227.102 113.273 226.57 111.711C226.039 110.133 225.773 108.422 225.773 106.578ZM233.672 106.086V106.578C233.672 107.531 233.742 108.422 233.883 109.25C234.023 110.078 234.258 110.805 234.586 111.43C234.914 112.039 235.359 112.516 235.922 112.859C236.484 113.203 237.188 113.375 238.031 113.375C238.859 113.375 239.547 113.203 240.094 112.859C240.656 112.516 241.102 112.039 241.43 111.43C241.758 110.805 241.992 110.078 242.133 109.25C242.273 108.422 242.344 107.531 242.344 106.578V106.086C242.344 105.164 242.273 104.297 242.133 103.484C241.992 102.656 241.758 101.93 241.43 101.305C241.102 100.664 240.656 100.164 240.094 99.8047C239.531 99.4453 238.828 99.2656 237.984 99.2656C237.156 99.2656 236.461 99.4453 235.898 99.8047C235.352 100.164 234.914 100.664 234.586 101.305C234.258 101.93 234.023 102.656 233.883 103.484C233.742 104.297 233.672 105.164 233.672 106.086ZM266.086 84.875H279.516C282.141 84.875 284.422 85.2656 286.359 86.0469C288.297 86.8281 289.789 87.9844 290.836 89.5156C291.898 91.0469 292.43 92.9375 292.43 95.1875C292.43 97.1406 292.125 98.7734 291.516 100.086C290.906 101.398 290.055 102.484 288.961 103.344C287.883 104.188 286.625 104.883 285.188 105.43L282.492 106.953H271.219L271.172 100.602H279.516C280.562 100.602 281.43 100.414 282.117 100.039C282.805 99.6641 283.32 99.1328 283.664 98.4453C284.023 97.7422 284.203 96.9062 284.203 95.9375C284.203 94.9531 284.023 94.1094 283.664 93.4062C283.305 92.7031 282.773 92.1641 282.07 91.7891C281.383 91.4141 280.531 91.2266 279.516 91.2266H274.312V119H266.086V84.875ZM284.766 119L277.219 103.906L285.938 103.859L293.578 118.648V119H284.766ZM311.836 112.836V93.6406H319.758V119H312.352L311.836 112.836ZM312.586 107.68L314.648 107.633C314.648 109.336 314.445 110.914 314.039 112.367C313.633 113.805 313.031 115.055 312.234 116.117C311.453 117.18 310.484 118.008 309.328 118.602C308.188 119.18 306.867 119.469 305.367 119.469C304.117 119.469 302.969 119.297 301.922 118.953C300.891 118.594 300 118.039 299.25 117.289C298.5 116.523 297.914 115.547 297.492 114.359C297.086 113.156 296.883 111.719 296.883 110.047V93.6406H304.781V110.094C304.781 110.656 304.852 111.141 304.992 111.547C305.133 111.953 305.336 112.297 305.602 112.578C305.867 112.844 306.195 113.047 306.586 113.188C306.992 113.312 307.453 113.375 307.969 113.375C309.156 113.375 310.086 113.125 310.758 112.625C311.43 112.125 311.898 111.445 312.164 110.586C312.445 109.727 312.586 108.758 312.586 107.68ZM331.875 99.0547V119H323.977V93.6406H331.383L331.875 99.0547ZM330.938 105.453L329.086 105.5C329.086 103.562 329.32 101.836 329.789 100.32C330.258 98.7891 330.922 97.4922 331.781 96.4297C332.641 95.3672 333.664 94.5625 334.852 94.0156C336.055 93.4531 337.391 93.1719 338.859 93.1719C340.031 93.1719 341.102 93.3438 342.07 93.6875C343.055 94.0312 343.898 94.5859 344.602 95.3516C345.32 96.1172 345.867 97.1328 346.242 98.3984C346.633 99.6484 346.828 101.195 346.828 103.039V119H338.883V103.016C338.883 102 338.742 101.227 338.461 100.695C338.18 100.148 337.773 99.7734 337.242 99.5703C336.711 99.3672 336.062 99.2656 335.297 99.2656C334.484 99.2656 333.797 99.4219 333.234 99.7344C332.672 100.047 332.219 100.484 331.875 101.047C331.547 101.594 331.305 102.242 331.148 102.992C331.008 103.742 330.938 104.562 330.938 105.453ZM363.773 108.195H357.047C357.047 106.82 357.141 105.609 357.328 104.562C357.531 103.5 357.875 102.547 358.359 101.703C358.844 100.859 359.5 100.078 360.328 99.3594C361.062 98.75 361.695 98.1641 362.227 97.6016C362.758 97.0391 363.164 96.4688 363.445 95.8906C363.727 95.3125 363.867 94.6953 363.867 94.0391C363.867 93.2266 363.75 92.5625 363.516 92.0469C363.297 91.5312 362.961 91.1484 362.508 90.8984C362.07 90.6328 361.516 90.5 360.844 90.5C360.297 90.5 359.781 90.6328 359.297 90.8984C358.828 91.1641 358.445 91.5781 358.148 92.1406C357.852 92.6875 357.688 93.4141 357.656 94.3203H349.711C349.758 91.9922 350.273 90.1016 351.258 88.6484C352.258 87.1797 353.586 86.1094 355.242 85.4375C356.914 84.75 358.781 84.4062 360.844 84.4062C363.125 84.4062 365.086 84.7578 366.727 85.4609C368.367 86.1641 369.625 87.2109 370.5 88.6016C371.375 89.9766 371.812 91.6719 371.812 93.6875C371.812 95.0312 371.555 96.2031 371.039 97.2031C370.539 98.1875 369.859 99.1094 369 99.9688C368.156 100.812 367.211 101.719 366.164 102.688C365.258 103.484 364.641 104.297 364.312 105.125C363.984 105.938 363.805 106.961 363.773 108.195ZM356.086 115.32C356.086 114.195 356.492 113.258 357.305 112.508C358.117 111.742 359.172 111.359 360.469 111.359C361.766 111.359 362.82 111.742 363.633 112.508C364.445 113.258 364.852 114.195 364.852 115.32C364.852 116.445 364.445 117.391 363.633 118.156C362.82 118.906 361.766 119.281 360.469 119.281C359.172 119.281 358.117 118.906 357.305 118.156C356.492 117.391 356.086 116.445 356.086 115.32Z" fill="black"/>
<path d="M1134 0H1348C1356.28 0 1363 6.71573 1363 15V148C1363 156.284 1356.28 163 1348 163H1134V0Z" fill="#FE9120"/>
<path d="M1260.62 78.8847C1263.81 78.8847 1266.93 79.805 1269.59 81.5293C1272.25 83.2536 1274.32 85.7044 1275.54 88.5718C1276.76 91.4391 1277.08 94.5943 1276.46 97.6383C1275.84 100.682 1274.3 103.478 1272.04 105.673C1269.78 107.868 1266.9 109.362 1263.77 109.968C1260.63 110.573 1257.39 110.262 1254.43 109.075C1251.48 107.887 1248.96 105.876 1247.18 103.295C1245.41 100.714 1244.46 97.6806 1244.46 94.5769C1244.46 90.4151 1246.16 86.4237 1249.19 83.4808C1252.22 80.538 1256.33 78.8847 1260.62 78.8847ZM1260.62 73.6539C1256.36 73.6539 1252.19 74.881 1248.65 77.1801C1245.11 79.4791 1242.35 82.7469 1240.72 86.57C1239.09 90.3932 1238.66 94.6001 1239.49 98.6588C1240.32 102.717 1242.37 106.446 1245.39 109.372C1248.4 112.298 1252.24 114.291 1256.41 115.098C1260.59 115.905 1264.92 115.491 1268.86 113.907C1272.79 112.324 1276.16 109.642 1278.52 106.201C1280.89 102.76 1282.15 98.7151 1282.15 94.5769C1282.15 89.0278 1279.88 83.706 1275.85 79.7821C1271.81 75.8583 1266.33 73.6539 1260.62 73.6539Z" fill="white"/>
<path d="M1274.08 47.5H1220.23C1218.8 47.5 1217.43 48.0511 1216.42 49.0321C1215.41 50.013 1214.85 51.3435 1214.85 52.7307V105.038C1214.85 106.426 1215.41 107.756 1216.42 108.737C1217.43 109.718 1218.8 110.269 1220.23 110.269H1231V105.038H1220.23V68.423H1279.46V52.7307C1279.46 51.3435 1278.89 50.013 1277.88 49.0321C1276.87 48.0511 1275.5 47.5 1274.08 47.5ZM1220.23 63.1922V52.7307H1274.08V63.1922H1220.23Z" fill="white"/>
<path d="M1255.23 86.731V102.423L1268.69 94.5771L1255.23 86.731Z" fill="white"/>
</svg>
